<svg xmlns="http://www.w3.org/2000/svg" width="88" height="93" viewBox="0 0 88 93">
  <g fill="none" fill-rule="evenodd">
    <path stroke="#000" stroke-width="6" d="M61,84 L61,77 L71,77 C74.3137085,77 77,74.3137085 77,71 L77,61.9781912 L77.6283187,61.1670598 C82.4053827,55.0000833 85,47.6756401 85,40 C85,19.632635 66.7041015,3 44,3 C21.2958985,3 3,19.632635 3,40 C3,48.1656058 5.93822638,55.9304922 11.2977578,62.3152075 L12,63.1517763 L12,71 C12,74.3137085 14.6862915,77 18,77 L28,77 L28,84 C28,87.3137085 30.6862915,90 34,90 L55,90 C58.3137085,90 61,87.3137085 61,84 Z"/>
    <circle cx="28" cy="42" r="12" fill="#000"/>
    <circle cx="60" cy="42" r="12" fill="#000"/>
    <path fill="#000" d="M50.0108982,54.5509154 L46.4371494,63.4331026 C46.1776857,64.0779731 45.444578,64.3904071 44.7997075,64.1309434 C44.3231155,63.9391865 44.0108982,63.4770244 44.0108982,62.9633021 L44.0108982,62.7607002 C44.0108982,59.009898 46.4372298,55.6899547 50.0108982,54.5509154 Z" transform="scale(-1 1) rotate(-13 0 471.996)"/>
    <path fill="#000" d="M45.0108982,54.5509154 L41.4371494,63.4331026 C41.1776857,64.0779731 40.444578,64.3904071 39.7997075,64.1309434 C39.3231155,63.9391865 39.0108982,63.4770244 39.0108982,62.9633021 L39.0108982,62.7607002 C39.0108982,59.009898 41.4372298,55.6899547 45.0108982,54.5509154 Z" transform="rotate(-13 42.01 59.387)"/>
    <path stroke="#000" stroke-linecap="round" stroke-width="3" d="M37.5 88.607691L37.5 76.215382M44.5 88.607691L44.5 76.215382M52.5 88.607691L52.5 76.215382"/>
  </g>
</svg>
