<svg xmlns="http://www.w3.org/2000/svg" width="90" height="172" viewBox="0 0 90 172">
  <g fill="none" fill-rule="evenodd" opacity=".7">
    <path fill="#FFBC19" fill-opacity=".7" d="M58,156.747296 L58,161 C58,167.075132 53.0751322,172 47,172 C40.9248678,172 36,167.075132 36,161 L36,156.747296 C34.4407209,159.861776 31.2200649,162 27.5,162 C22.2532949,162 18,157.746705 18,152.5 L18,141.747296 C16.4407209,144.861776 13.2200649,147 9.5,147 C4.25329488,147 6.42536064e-16,142.746705 0,137.5 L0,131.5 L0,48 L0.0984136642,48 C0.0331480617,47.0084292 0,46.0080857 0,45 C0,20.1471863 20.1471863,0 45,0 C69.8528137,0 90,20.1471863 90,45 C90,45.6701895 89.9853493,46.3369571 89.9563507,47 L90,47 L90,140.5 C90,145.746705 85.7467051,150 80.5,150 C78.8718686,150 77.3393981,149.590427 76,148.868693 L76,152.5 C76,157.746705 71.7467051,162 66.5,162 C62.7799351,162 59.5592791,159.861776 57.9999993,156.747295 Z"/>
    <circle cx="27" cy="37" r="11" fill="#A27B57"/>
    <path fill="#A27B57" d="M34,51 L56,51 C56,57.0751322 51.0751322,62 45,62 C38.9248678,62 34,57.0751322 34,51 Z"/>
    <circle cx="63" cy="37" r="11" fill="#A27B57"/>
    <circle cx="30" cy="39" r="6" fill="#FFF"/>
    <circle cx="62" cy="39" r="6" fill="#FFF"/>
  </g>
</svg>
