<svg xmlns="http://www.w3.org/2000/svg" width="104" height="160" viewBox="0 0 104 160">
  <g fill="none" fill-rule="evenodd">
    <path stroke="#A27B57" stroke-width="2" d="M12,6 L12,157.856657 L19.5,151.568724 L27,157.856657 L27,6 L12,6 Z"/>
    <path fill="#675C54" stroke="#321605" d="M2,0.5 C1.17157288,0.5 0.5,1.17157288 0.5,2 L0.5,143 C0.5,143.828427 1.17157288,144.5 2,144.5 L83,144.5 C89.9035594,144.5 95.5,138.903559 95.5,132 L95.5,13 C95.5,6.09644063 89.9035594,0.5 83,0.5 L2,0.5 Z"/>
    <path fill="#FFF" stroke="#A27B57" stroke-width="2" d="M9,1 L9,144 L91,144 C97.627417,144 103,138.627417 103,132 L103,13 C103,6.372583 97.627417,1 91,1 L9,1 Z"/>
  </g>
</svg>
