<svg xmlns="http://www.w3.org/2000/svg" width="70" height="70" viewBox="0 0 70 70">
  <g fill="#D8D8D8" fill-rule="evenodd">
    <path d="M40.9104482,70 C40.9679596,69.8737918 41,69.7335308 41,69.5857864 L41,55.5857864 C41,55.0335017 40.5522847,54.5857864 40,54.5857864 L31,54.5857864 C30.4477153,54.5857864 30,55.0335017 30,55.5857864 L30,69.5857864 C30,69.7335308 30.0320404,69.8737918 30.0895518,70 L10,70 C8.8954305,70 8,69.1045695 8,68 L8,40 L8.1629509,40 L35.5771645,12.5857864 L62.991378,40 L63,40 L63,40.008622 L63.1543289,40.1629509 L63,40.3172798 L63,68 C63,69.1045695 62.1045695,70 61,70 L40.9104482,70 Z"/>
    <path fill-rule="nonzero" d="M53.5860892,16.9081266 L53.5860892,15.0021043 C53.5860892,14.4498196 54.0338044,14.0021043 54.5860892,14.0021043 L60.5860892,14.0021043 C61.1383739,14.0021043 61.5860892,14.4498196 61.5860892,15.0021043 L61.5860892,24.9081266 L68.2210568,31.5430943 C69.3926297,32.7146671 69.3926297,34.6141621 68.2210568,35.785735 C67.049484,36.9573078 65.149989,36.9573078 63.9784161,35.785735 L54.0175568,25.8248756 C53.9182811,25.7561465 53.832047,25.6699124 53.763318,25.5706368 L35.4353219,7.24264069 L5.12132034,37.5566422 C3.94974747,38.7282151 2.05025253,38.7282151 0.878679656,37.5566422 C-0.292893219,36.3850693 -0.292893219,34.4855744 0.878679656,33.3140015 L33.3140015,0.878679656 C34.4855744,-0.292893219 36.3850693,-0.292893219 37.5566422,0.878679656 L53.5860892,16.9081266 Z"/>
  </g>
</svg>
