<svg xmlns="http://www.w3.org/2000/svg" width="70" height="69" viewBox="0 0 70 69">
  <g fill="none" fill-rule="evenodd" transform="translate(3 2)">
    <path fill="#D8D8D8" d="M37.9104482,67 C37.9679596,66.8737918 38,66.7335308 38,66.5857864 L38,52.5857864 C38,52.0335017 37.5522847,51.5857864 37,51.5857864 L28,51.5857864 C27.4477153,51.5857864 27,52.0335017 27,52.5857864 L27,66.5857864 C27,66.7335308 27.0320404,66.8737918 27.0895518,67 L7,67 C5.8954305,67 5,66.1045695 5,65 L5,37 L5.1629509,37 L32.5771645,9.58578644 L59.991378,37 L60,37 L60,37.008622 L60.1543289,37.1629509 L60,37.3172798 L60,65 C60,66.1045695 59.1045695,67 58,67 L37.9104482,67 Z"/>
    <path stroke="#D8D8D8" stroke-linecap="round" stroke-linejoin="round" stroke-width="6" d="M0.413910818,33.4332175 L32.8492327,0.997895669 C53.2921758,21.4408387 63.5136473,31.6623103 63.5136473,31.6623103"/>
    <rect width="8" height="12" x="51" y="12" fill="#D8D8D8" rx="1"/>
  </g>
</svg>
