<svg xmlns="http://www.w3.org/2000/svg" width="52" height="56" viewBox="0 0 52 56">
  <g fill="none" fill-rule="evenodd">
    <path stroke="#FFF" stroke-width="5.4" d="M16.6836183,32.8746336 L19.2383316,36.3039618 L10.335833,38.0699418 C7.74746741,38.5833934 5.67861144,40.528123 5.00619564,43.0798138 L2.74286238,51.6687357 C2.71437175,51.7768522 2.69994788,51.8881926 2.69994788,52 C2.69994788,52.7179702 3.2819777,53.3 3.99994788,53.3 L47.9990986,53.3 C48.1057911,53.3 48.2120778,53.2868656 48.3155607,53.2608932 C49.0119328,53.0861161 49.434769,52.37991 49.2599918,51.6835379 L47.1188512,43.152501 C46.4684724,40.5611692 44.3805904,38.5781846 41.7592019,38.0621263 L32.4163574,36.2228519 L34.9526664,32.7925295 C38.4043341,28.1241974 40.6807305,22.0819892 40.6807305,17.6 C40.6807305,9.37071874 34.0126438,2.7 25.787675,2.7 C17.5627062,2.7 10.8946196,9.37071874 10.8946196,17.6 C10.8946196,22.110676 13.1998776,28.1982225 16.6836183,32.8746336 Z"/>
    <path stroke="#FFF" stroke-width="5.4" d="M25.5,39.3 C31.8457254,39.3 40.3,26.808785 40.3,17.6385186 C40.3,9.38345815 33.6690283,2.7 25.5,2.7 C17.3309717,2.7 10.7,9.38345815 10.7,17.6385186 C10.7,26.808785 19.1542746,39.3 25.5,39.3 Z"/>
  </g>
</svg>
