<svg xmlns="http://www.w3.org/2000/svg" width="52" height="56" viewBox="0 0 52 56">
  <g fill="none" fill-rule="evenodd">
    <path fill="#868383" d="M15.1439779,34.3635445 C18.3586303,38.7839441 22.4586494,42 26.5,42 C30.4936867,42 34.5446662,38.8593574 37.7419128,34.5194419 L42.2807261,35.4129731 C45.9278753,36.1309673 48.8327546,38.8899023 49.7376295,42.4952336 L51.8787701,51.0262705 C52.416546,53.1689539 51.1155115,55.3418955 48.9728281,55.8796715 C48.6544191,55.9595866 48.3273831,56 47.9990986,56 L3.99994788,56 C1.79080888,56 -5.21214235e-05,54.209139 -5.21214235e-05,52 C-5.21214235e-05,51.6559771 0.0443290285,51.3133915 0.131992505,50.9807251 L2.39532576,42.3918033 C3.33086078,38.8416248 6.2092691,36.135914 9.81047345,35.4215466 L15.1439779,34.3635445 Z"/>
    <path fill="#868383" d="M26.5,40 C34.1318885,40 42,26.7723841 42,17.9586597 C42,9.14493532 35.0604136,2 26.5,2 C17.9395864,2 11,9.14493532 11,17.9586597 C11,26.7723841 18.8681115,40 26.5,40 Z"/>
  </g>
</svg>
