<svg xmlns="http://www.w3.org/2000/svg" width="52" height="56" viewBox="0 0 52 56">
  <g fill="none" fill-rule="evenodd">
    <path stroke="#000" stroke-width="2.4" d="M15.4807146,33.7707491 L16.6161428,35.2948949 L10.0439666,36.5986111 C6.89291279,37.2236826 4.37430552,39.5911795 3.55571237,42.6975858 L1.29237912,51.2865076 C1.23101468,51.519374 1.19994788,51.759184 1.19994788,52 C1.19994788,53.5463973 2.45355058,54.8 3.99994788,54.8 L47.9990986,54.8 C48.2288977,54.8 48.4578229,54.7717106 48.6807092,54.71577 C50.1805876,54.3393269 51.0913118,52.8182677 50.7148686,51.3183894 L48.573728,42.7873525 C47.7819625,39.6326876 45.2401931,37.2186194 42.0489376,36.5903745 L35.0315388,35.2088979 L36.1587872,33.6843101 C39.7901198,28.7729837 42.1807305,22.427618 42.1807305,17.6 C42.1807305,8.54242411 34.8412035,1.2 25.787675,1.2 C16.7341465,1.2 9.39461959,8.54242411 9.39461959,17.6 C9.39461959,22.4580839 11.8153295,28.8505069 15.4807146,33.7707491 Z"/>
    <path stroke="#000" stroke-width="2.4" d="M25.5,40.8 C32.826316,40.8 41.8,27.5413561 41.8,17.6385186 C41.8,8.55766683 34.5001143,1.2 25.5,1.2 C16.4998857,1.2 9.2,8.55766683 9.2,17.6385186 C9.2,27.5413561 18.173684,40.8 25.5,40.8 Z"/>
  </g>
</svg>
