<svg xmlns="http://www.w3.org/2000/svg" viewBox="0 0 51.44 49.13"><defs><style>.cls-1{fill:#fecb37;}</style></defs><title>bookmark</title><g id="Layer_2" data-name="Layer 2"><g id="Layer_1-2" data-name="Layer 1"><path class="cls-1" d="M27.61,1.17,33.92,14a2.11,2.11,0,0,0,1.59,1.15l14.12,2.06a2.1,2.1,0,0,1,1.17,3.59l-10.22,10a2.08,2.08,0,0,0-.6,1.86l2.41,14.07a2.11,2.11,0,0,1-3.06,2.22L26.7,42.24a2.12,2.12,0,0,0-2,0L12.11,48.88a2.11,2.11,0,0,1-3.06-2.22l2.41-14.07a2.1,2.1,0,0,0-.6-1.86L.64,20.77a2.1,2.1,0,0,1,1.17-3.59l14.12-2.06A2.1,2.1,0,0,0,17.51,14l6.32-12.8A2.11,2.11,0,0,1,27.61,1.17Z"/></g></g></svg>