<svg xmlns="http://www.w3.org/2000/svg" viewBox="0 0 54.44 52.13"><defs><style>.cls-1{fill:none;stroke:#fecb37;stroke-miterlimit:10;stroke-width:3px;}</style></defs><title>outbookmark</title><g id="Layer_2" data-name="Layer 2"><g id="Layer_1-2" data-name="Layer 1"><path class="cls-1" d="M29.11,2.67l6.31,12.8A2.11,2.11,0,0,0,37,16.62l14.12,2.06a2.1,2.1,0,0,1,1.17,3.59l-10.22,10a2.08,2.08,0,0,0-.6,1.86l2.41,14.07a2.11,2.11,0,0,1-3.06,2.22L28.2,43.74a2.12,2.12,0,0,0-2,0L13.61,50.38a2.11,2.11,0,0,1-3.06-2.22L13,34.09a2.1,2.1,0,0,0-.6-1.86l-10.22-10a2.1,2.1,0,0,1,1.17-3.59l14.12-2.06A2.1,2.1,0,0,0,19,15.47l6.32-12.8A2.11,2.11,0,0,1,29.11,2.67Z"/></g></g></svg>