<svg xmlns="http://www.w3.org/2000/svg" width="44" height="30" viewBox="0 0 44 30">
  <g fill="none" fill-rule="evenodd" transform="translate(0 2)">
    <path stroke="#000" stroke-width="2.1" d="M1.16098722,16.5 C4.24766195,22.824279 10.742164,26.95 18,26.95 C25.257836,26.95 31.752338,22.824279 34.8390128,16.5 C31.752338,10.175721 25.257836,6.05 18,6.05 C10.742164,6.05 4.24766195,10.175721 1.16098722,16.5 Z"/>
    <path stroke="#000" stroke-linecap="square" stroke-width="2.8" d="M36 10.6428571L42 6M29 5.625L35 0"/>
    <path fill="#000" d="M18.2610372,10.5761626 L18.7969796,10.0540606 C20.9197188,7.98613996 24.3035955,7.98613996 26.4263348,10.0540606 C28.4787164,12.0534407 28.5216827,15.3380426 26.5223026,17.3904242 C26.4907331,17.4228306 26.4587411,17.4548226 26.4263348,17.4863921 L25.8903924,18.0084941 L19.0149723,24.7063603 C18.5954329,25.1150654 17.9266415,25.1150654 17.5071021,24.7063603 L13.3883428,20.6939657 L9.57366524,16.9778 C7.52128359,14.9784199 7.47831732,11.693818 9.47769739,9.64143637 C9.50926687,9.60903002 9.54125889,9.577038 9.57366524,9.54546852 C11.6964045,7.47754783 15.0802812,7.47754783 17.2030204,9.54546852 L18.2610372,10.5761626 Z"/>
    <path fill="#FFF" d="M21.6920497,12.5444959 C22.8151042,12.5444959 24,13.5693801 24,12.5444959 C24,11.5196116 22.8151042,11 21.6920497,11 C20.5689952,11 19,11.5196116 19,12.5444959 C19,13.5693801 20.5689952,12.5444959 21.6920497,12.5444959 Z"/>
  </g>
</svg>
