<svg xmlns="http://www.w3.org/2000/svg" width="109" height="109" viewBox="0 0 109 109">
  <path fill="#FFBC19" fill-rule="evenodd" stroke="#FFBC19" stroke-width="5" d="M48.855513,78.8025282 C52.2984308,76.6075943 56.7015692,76.6075943 60.144487,78.8025282 L71.8610736,86.2721034 C73.0255189,87.0144622 74.4461197,87.2394633 75.7829745,86.8932714 C78.4430579,86.2044164 80.0410542,83.4895654 79.3521992,80.8294821 L75.8688354,67.3781204 C74.8452493,63.425439 76.2058939,59.2378056 79.3573202,56.6416681 L90.0819327,47.8067577 C91.1477913,46.9287059 91.8007698,45.6471634 91.8846327,44.2687598 C92.0515036,41.5260023 89.9633349,39.1672824 87.2205774,39.0004115 L73.3511536,38.1565879 C69.2756247,37.9086304 65.713411,35.3205306 64.2181818,31.5210954 L59.1297702,18.5912454 C58.6240618,17.3062207 57.6070239,16.2891828 56.3219992,15.7834744 C53.7650477,14.777212 50.8764922,16.0342939 49.8702298,18.5912454 L44.7818182,31.5210954 C43.286589,35.3205306 39.7243753,37.9086304 35.6488464,38.1565879 L21.7794226,39.0004115 C20.401019,39.0842743 19.1194765,39.7372528 18.2414247,40.8031114 C16.4942709,42.9239646 16.7972141,46.0596039 18.9180673,47.8067577 L29.6426798,56.6416681 C32.7941061,59.2378056 34.1547507,63.425439 33.1311646,67.3781204 L29.6478008,80.8294821 C29.301609,82.1663368 29.5266101,83.5869377 30.2689689,84.7513829 C31.7461199,87.0684047 34.8219047,87.7492544 37.1389264,86.2721034 L48.855513,78.8025282 Z"/>
</svg>
